# Blender v2.83.15 OBJ File: ''
# www.blender.org
mtllib Bracelet.mtl.mtl.mtl
o Torus.001
v 0.000000 0.000000 0.125000
v 0.000000 0.025000 0.100000
v 0.000000 0.000000 0.075000
v 0.000000 -0.025000 0.100000
v 0.058839 0.017678 0.101912
v 0.041161 0.017678 0.071293
v 0.041161 -0.017678 0.071293
v 0.058839 -0.017678 0.101912
v 0.108253 0.000000 0.062500
v 0.086603 0.025000 0.050000
v 0.064952 0.000000 0.037500
v 0.086603 -0.025000 0.050000
v 0.117678 0.017678 0.000000
v 0.082322 0.017678 0.000000
v 0.082322 -0.017678 0.000000
v 0.117678 -0.017678 0.000000
v 0.108253 0.000000 -0.062500
v 0.086603 0.025000 -0.050000
v 0.064952 0.000000 -0.037500
v 0.086603 -0.025000 -0.050000
v 0.058839 0.017678 -0.101912
v 0.041161 0.017678 -0.071293
v 0.041161 -0.017678 -0.071293
v 0.058839 -0.017678 -0.101912
v 0.000000 0.000000 -0.125000
v 0.000000 0.025000 -0.100000
v 0.000000 0.000000 -0.075000
v 0.000000 -0.025000 -0.100000
v -0.058839 0.017678 -0.101912
v -0.041161 0.017678 -0.071293
v -0.041161 -0.017678 -0.071293
v -0.058839 -0.017678 -0.101912
v -0.108253 0.000000 -0.062500
v -0.086603 0.025000 -0.050000
v -0.064952 0.000000 -0.037500
v -0.086603 -0.025000 -0.050000
v -0.117678 0.017678 0.000000
v -0.082322 0.017678 0.000000
v -0.082322 -0.017678 0.000000
v -0.117678 -0.017678 0.000000
v -0.108253 0.000000 0.062500
v -0.086603 0.025000 0.050000
v -0.064952 0.000000 0.037500
v -0.086603 -0.025000 0.050000
v -0.058839 0.017678 0.101912
v -0.041161 0.017678 0.071293
v -0.041161 -0.017678 0.071293
v -0.058839 -0.017678 0.101912
vt 0.500000 0.750000
vt 0.416667 0.625000
vt 0.500000 0.500000
vt 0.583333 0.625000
vt 0.500000 1.000000
vt 0.416667 0.875000
vt 0.583333 0.875000
vt 0.500000 0.250000
vt 0.416667 0.125000
vt 0.500000 0.000000
vt 0.583333 0.125000
vt 0.416667 0.375000
vt 0.583333 0.375000
vt 0.666667 0.500000
vt 0.666667 0.250000
vt 0.750000 0.375000
vt 0.750000 0.875000
vt 0.666667 0.750000
vt 0.750000 0.625000
vt 0.833333 0.750000
vt 0.833333 0.500000
vt 0.750000 0.125000
vt 0.666667 1.000000
vt 0.833333 0.000000
vt 0.666667 0.000000
vt 0.833333 0.250000
vt 0.916667 0.625000
vt 0.833333 1.000000
vt 0.916667 0.875000
vt 0.916667 0.375000
vt 1.000000 0.750000
vt 1.000000 0.500000
vt 0.916667 0.125000
vt 1.000000 0.000000
vt 1.000000 0.250000
vt 0.000000 0.500000
vt 0.083333 0.625000
vt 1.000000 1.000000
vt 0.000000 0.750000
vt 0.083333 0.875000
vt 0.000000 0.250000
vt 0.083333 0.375000
vt 0.166667 0.750000
vt 0.166667 0.500000
vt 0.083333 0.125000
vt 0.000000 1.000000
vt 0.166667 0.000000
vt 0.000000 0.000000
vt 0.166667 0.250000
vt 0.250000 0.625000
vt 0.166667 1.000000
vt 0.250000 0.875000
vt 0.250000 0.375000
vt 0.333333 0.750000
vt 0.333333 0.500000
vt 0.250000 0.125000
vt 0.333333 0.000000
vt 0.333333 0.250000
vt 0.333333 1.000000
vn 0.0000 0.7071 0.7071
vn 0.0000 0.7071 -0.7071
vn 0.0000 -0.7071 -0.7071
vn 0.0000 -0.7071 0.7071
vn 0.6124 -0.7071 0.3536
vn 0.0000 1.0000 0.0000
vn 1.0000 0.0000 0.0000
vn -1.0000 0.0000 -0.0000
vn -0.6124 -0.7071 -0.3536
vn 0.0000 -1.0000 0.0000
vn 0.6124 0.7071 -0.3536
vn -0.6124 0.7071 0.3536
vn 0.6124 -0.7071 -0.3536
vn 0.5000 0.0000 -0.8660
vn -0.5000 0.0000 0.8660
vn -0.6124 -0.7071 0.3536
vn -0.5000 0.0000 -0.8660
vn 0.5000 0.0000 0.8660
vn -0.6124 0.7071 -0.3536
vn 0.6124 0.7071 0.3536
usemtl None
s off
f 2/1/1 45/2/1 1/3/1 5/4/1
f 3/5/2 46/6/2 2/1/2 6/7/2
f 4/8/3 47/9/3 3/10/3 7/11/3
f 1/3/4 48/12/4 4/8/4 8/13/4
f 9/14/5 8/13/5 12/15/5 16/16/5
f 14/17/6 10/18/6 13/19/6 18/20/6
f 17/21/7 13/19/7 9/14/7 16/16/7
f 15/22/8 11/23/8 14/17/8 19/24/8
f 12/15/9 7/11/9 11/25/9 15/22/9
f 16/16/10 12/15/10 15/22/10 20/26/10
f 18/20/11 13/19/11 17/21/11 21/27/11
f 19/28/12 14/17/12 18/20/12 22/29/12
f 17/21/13 16/16/13 20/26/13 24/30/13
f 22/29/6 18/20/6 21/27/6 26/31/6
f 25/32/14 21/27/14 17/21/14 24/30/14
f 23/33/15 19/28/15 22/29/15 27/34/15
f 20/26/16 15/22/16 19/24/16 23/33/16
f 24/30/10 20/26/10 23/33/10 28/35/10
f 26/31/2 21/27/2 25/36/2 29/37/2
f 27/38/1 22/29/1 26/39/1 30/40/1
f 25/32/3 24/30/3 28/41/3 32/42/3
f 30/40/6 26/39/6 29/37/6 34/43/6
f 33/44/17 29/37/17 25/36/17 32/42/17
f 31/45/18 27/46/18 30/40/18 35/47/18
f 28/35/4 23/33/4 27/48/4 31/45/4
f 32/42/10 28/41/10 31/45/10 36/49/10
f 34/43/19 29/37/19 33/44/19 37/50/19
f 35/51/20 30/40/20 34/43/20 38/52/20
f 33/44/9 32/42/9 36/49/9 40/53/9
f 38/52/6 34/43/6 37/50/6 42/54/6
f 41/55/8 37/50/8 33/44/8 40/53/8
f 39/56/7 35/51/7 38/52/7 43/57/7
f 36/49/5 31/45/5 35/47/5 39/56/5
f 40/53/10 36/49/10 39/56/10 44/58/10
f 42/54/12 37/50/12 41/55/12 45/2/12
f 43/59/11 38/52/11 42/54/11 46/6/11
f 41/55/16 40/53/16 44/58/16 48/12/16
f 46/6/6 42/54/6 45/2/6 2/1/6
f 1/3/15 45/2/15 41/55/15 48/12/15
f 47/9/14 43/59/14 46/6/14 3/10/14
f 44/58/13 39/56/13 43/57/13 47/9/13
f 48/12/10 44/58/10 47/9/10 4/8/10
f 7/11/17 3/5/17 6/7/17 11/25/17
f 8/13/10 4/8/10 7/11/10 12/15/10
f 11/23/19 6/7/19 10/18/19 14/17/19
f 9/14/18 5/4/18 1/3/18 8/13/18
f 6/7/6 2/1/6 5/4/6 10/18/6
f 10/18/20 5/4/20 9/14/20 13/19/20
