# Blender v2.83.15 OBJ File: ''
# www.blender.org
mtllib IDCard.mtl
o Cube
v 0.094469 -0.002370 -0.189498
v 0.110073 -0.002370 -0.173893
v 0.102931 -0.002370 -0.187230
v 0.107806 -0.002370 -0.182356
v -0.110073 -0.002370 -0.173893
v -0.094469 -0.002370 -0.189498
v -0.107806 -0.002370 -0.182356
v -0.102931 -0.002370 -0.187230
v 0.110073 -0.002370 0.173893
v 0.094469 -0.002370 0.189498
v 0.107806 -0.002370 0.182356
v 0.102931 -0.002370 0.187230
v -0.094469 -0.002370 0.189498
v -0.110073 -0.002370 0.173893
v -0.102931 -0.002370 0.187230
v -0.107806 -0.002370 0.182356
v 0.123781 0.004740 -0.175698
v 0.096273 0.004740 -0.203205
v 0.120096 0.004740 -0.189452
v 0.110027 0.004740 -0.199520
v -0.096273 0.004740 -0.203205
v -0.123781 0.004740 -0.175698
v -0.110027 0.004740 -0.199520
v -0.120096 0.004740 -0.189452
v 0.096273 0.004740 0.203205
v 0.123781 0.004740 0.175698
v 0.110027 0.004740 0.199520
v 0.120096 0.004740 0.189452
v -0.123781 0.004740 0.175698
v -0.096273 0.004740 0.203205
v -0.120096 0.004740 0.189452
v -0.110027 0.004740 0.199520
v -0.120096 -0.002370 -0.189452
v -0.123781 -0.002370 -0.175698
v -0.110027 -0.002370 -0.199520
v -0.096273 -0.002370 -0.203205
v 0.120096 -0.002370 0.189452
v 0.123781 -0.002370 0.175698
v 0.110027 -0.002370 0.199520
v 0.096273 -0.002370 0.203205
v -0.123781 -0.002370 0.175698
v -0.120096 -0.002370 0.189452
v -0.110027 -0.002370 0.199520
v -0.096273 -0.002370 0.203205
v 0.123781 -0.002370 -0.175698
v 0.120096 -0.002370 -0.189452
v 0.110027 -0.002370 -0.199520
v 0.096273 -0.002370 -0.203205
vt 0.125000 0.516921
vt 0.375000 0.516921
vt 0.375000 0.733079
vt 0.125000 0.733079
vt 0.375000 0.016921
vt 0.378722 0.008461
vt 0.388889 0.002267
vt 0.402779 0.000000
vt 0.597221 0.000000
vt 0.611111 0.002267
vt 0.621278 0.008461
vt 0.625000 0.016921
vt 0.625000 0.233079
vt 0.621278 0.241539
vt 0.611111 0.247733
vt 0.597221 0.250000
vt 0.402779 0.250000
vt 0.388889 0.247733
vt 0.378722 0.241539
vt 0.375000 0.233079
vt 0.402779 0.750000
vt 0.597221 0.750000
vt 0.597221 1.000000
vt 0.402779 1.000000
vt 0.625000 0.516921
vt 0.875000 0.516921
vt 0.875000 0.733079
vt 0.625000 0.733079
vt 0.388843 0.518031
vt 0.391133 0.512825
vt 0.396055 0.509827
vt 0.404601 0.508432
vt 0.595399 0.508432
vt 0.603945 0.509827
vt 0.608867 0.512825
vt 0.611157 0.518031
vt 0.611157 0.731969
vt 0.608867 0.737175
vt 0.603945 0.740173
vt 0.595399 0.741568
vt 0.404601 0.741568
vt 0.396055 0.740173
vt 0.391133 0.737175
vt 0.388843 0.731969
vt 0.125000 0.508461
vt 0.375000 0.508461
vt 0.125000 0.500000
vt 0.375000 0.500000
vt 0.388889 0.500000
vt 0.388889 0.250000
vt 0.402779 0.500000
vt 0.875000 0.741539
vt 0.625000 0.741539
vt 0.875000 0.750000
vt 0.625000 0.750000
vt 0.611111 0.750000
vt 0.611111 1.000000
vt 0.375000 0.741539
vt 0.125000 0.741539
vt 0.375000 0.750000
vt 0.125000 0.750000
vt 0.388889 1.000000
vt 0.388889 0.750000
vt 0.625000 0.508461
vt 0.875000 0.508461
vt 0.625000 0.500000
vt 0.875000 0.500000
vt 0.611111 0.250000
vt 0.611111 0.500000
vt 0.597221 0.500000
vt 0.378722 0.508461
vt 0.388889 0.502267
vt 0.621278 0.741539
vt 0.611111 0.747733
vt 0.378722 0.741540
vt 0.388889 0.747733
vt 0.621278 0.508461
vt 0.611111 0.502267
vn -1.0000 0.0000 0.0000
vn -0.0000 1.0000 0.0000
vn 0.0000 0.0000 1.0000
vn 1.0000 0.0000 0.0000
vn 0.0000 -1.0000 -0.0000
vn -0.9659 0.0000 -0.2588
vn -0.7071 0.0000 -0.7071
vn -0.2588 0.0000 -0.9659
vn 0.9659 0.0000 0.2588
vn 0.7071 0.0000 0.7071
vn 0.2588 0.0000 0.9659
vn -0.9659 0.0000 0.2588
vn -0.7071 0.0000 0.7071
vn -0.2588 0.0000 0.9659
vn 0.9659 0.0000 -0.2588
vn 0.7071 0.0000 -0.7071
vn 0.2588 0.0000 -0.9659
vn -0.0000 0.0000 -1.0000
usemtl Material
s off
f 22/1/1 34/2/1 41/3/1 29/4/1
f 29/5/2 31/6/2 32/7/2 30/8/2 25/9/2 27/10/2 28/11/2 26/12/2 17/13/2 19/14/2 20/15/2 18/16/2 21/17/2 23/18/2 24/19/2 22/20/2
f 44/21/3 40/22/3 25/23/3 30/24/3
f 45/25/4 17/26/4 26/27/4 38/28/4
f 5/29/5 7/30/5 8/31/5 6/32/5 1/33/5 3/34/5 4/35/5 2/36/5 9/37/5 11/38/5 12/39/5 10/40/5 13/41/5 15/42/5 16/43/5 14/44/5
f 34/2/6 22/1/6 24/45/6 33/46/6
f 33/46/7 24/45/7 23/47/7 35/48/7
f 35/49/8 23/50/8 21/17/8 36/51/8
f 38/28/9 26/27/9 28/52/9 37/53/9
f 37/53/10 28/52/10 27/54/10 39/55/10
f 39/56/11 27/57/11 25/23/11 40/22/11
f 29/4/12 41/3/12 42/58/12 31/59/12
f 31/59/13 42/58/13 43/60/13 32/61/13
f 32/62/14 43/63/14 44/21/14 30/24/14
f 17/26/15 45/25/15 46/64/15 19/65/15
f 19/65/16 46/64/16 47/66/16 20/67/16
f 20/68/17 47/69/17 48/70/17 18/16/17
f 21/17/18 18/16/18 48/70/18 36/51/18
f 7/30/5 5/29/5 34/2/5 33/71/5
f 8/31/5 7/30/5 33/71/5 35/72/5
f 6/32/5 8/31/5 35/72/5 36/51/5
f 11/38/5 9/37/5 38/28/5 37/73/5
f 12/39/5 11/38/5 37/73/5 39/74/5
f 10/40/5 12/39/5 39/74/5 40/22/5
f 14/44/5 16/43/5 42/75/5 41/3/5
f 16/43/5 15/42/5 43/76/5 42/75/5
f 15/42/5 13/41/5 44/21/5 43/76/5
f 2/36/5 4/35/5 46/77/5 45/25/5
f 4/35/5 3/34/5 47/78/5 46/77/5
f 3/34/5 1/33/5 48/70/5 47/78/5
f 1/33/5 6/32/5 36/51/5 48/70/5
f 5/29/5 14/44/5 41/3/5 34/2/5
f 9/37/5 2/36/5 45/25/5 38/28/5
f 13/41/5 10/40/5 40/22/5 44/21/5
