# Blender v2.83.15 OBJ File: ''
# www.blender.org
mtllib WineBottle.mtl
o Cylinder
v 0.000000 -0.240391 -0.100000
v 0.000000 0.097754 -0.100000
v 0.050000 -0.240391 -0.086603
v 0.050000 0.097754 -0.086603
v 0.086603 -0.240391 -0.050000
v 0.086603 0.097754 -0.050000
v 0.100000 -0.240391 -0.000000
v 0.100000 0.097754 -0.000000
v 0.086603 -0.240391 0.050000
v 0.086603 0.097754 0.050000
v 0.050000 -0.240391 0.086603
v 0.050000 0.097754 0.086603
v 0.000000 -0.240391 0.100000
v 0.000000 0.097754 0.100000
v -0.050000 -0.240391 0.086603
v -0.050000 0.097754 0.086603
v -0.086603 -0.240391 0.050000
v -0.086603 0.097754 0.050000
v -0.100000 -0.240391 0.000000
v -0.100000 0.097754 0.000000
v -0.086603 -0.240391 -0.050000
v -0.086603 0.097754 -0.050000
v -0.050000 -0.240391 -0.086603
v -0.050000 0.097754 -0.086603
v -0.000000 0.266209 -0.030000
v 0.015000 0.266209 -0.025981
v 0.025981 0.266209 -0.015000
v 0.030000 0.266209 0.000000
v 0.025981 0.266209 0.015000
v 0.015000 0.266209 0.025981
v 0.000000 0.266209 0.030000
v -0.015000 0.266209 0.025981
v -0.025981 0.266209 0.015000
v -0.030000 0.266209 0.000000
v -0.025981 0.266209 -0.015000
v -0.015000 0.266209 -0.025981
v -0.000000 0.360181 -0.030000
v 0.015000 0.360181 -0.025981
v 0.025981 0.360181 -0.015000
v 0.030000 0.360181 0.000000
v 0.025981 0.360181 0.015000
v 0.015000 0.360181 0.025981
v 0.000000 0.360181 0.030000
v -0.015000 0.360181 0.025981
v -0.025981 0.360181 0.015000
v -0.030000 0.360181 0.000000
v -0.025981 0.360181 -0.015000
v -0.015000 0.360181 -0.025981
v 0.000000 0.360181 -0.039000
v 0.019500 0.360181 -0.033775
v 0.033775 0.360181 -0.019500
v 0.039000 0.360181 0.000000
v 0.033775 0.360181 0.019500
v 0.019500 0.360181 0.033775
v 0.000000 0.360181 0.039000
v -0.019500 0.360181 0.033775
v -0.033775 0.360181 0.019500
v -0.039000 0.360181 0.000000
v -0.033775 0.360181 -0.019500
v -0.019500 0.360181 -0.033775
v 0.000000 0.375544 -0.039000
v 0.019500 0.375544 -0.033775
v 0.033775 0.375544 -0.019500
v 0.039000 0.375544 0.000000
v 0.033775 0.375544 0.019500
v 0.019500 0.375544 0.033775
v 0.000000 0.375544 0.039000
v -0.019500 0.375544 0.033775
v -0.033775 0.375544 0.019500
v -0.039000 0.375544 0.000000
v -0.033775 0.375544 -0.019500
v -0.019500 0.375544 -0.033775
v -0.000000 0.375544 -0.027300
v 0.013650 0.375544 -0.023642
v 0.023642 0.375544 -0.013650
v 0.027300 0.375544 0.000000
v 0.023642 0.375544 0.013650
v 0.013650 0.375544 0.023643
v 0.000000 0.375544 0.027300
v -0.013650 0.375544 0.023643
v -0.023642 0.375544 0.013650
v -0.027300 0.375544 0.000000
v -0.023643 0.375544 -0.013650
v -0.013650 0.375544 -0.023642
v -0.000000 -0.001295 -0.027300
v 0.013650 -0.001295 -0.023642
v 0.023642 -0.001295 -0.013650
v 0.027300 -0.001295 0.000000
v 0.023642 -0.001295 0.013650
v 0.013650 -0.001295 0.023643
v 0.000000 -0.001295 0.027300
v -0.013650 -0.001295 0.023643
v -0.023642 -0.001295 0.013650
v -0.027300 -0.001295 0.000000
v -0.023643 -0.001295 -0.013650
v -0.013650 -0.001295 -0.023642
v -0.076250 0.144076 0.044023
v -0.044023 0.144076 0.076250
v 0.000000 0.144076 0.088046
v 0.000000 0.144076 -0.088046
v -0.044023 0.144076 -0.076250
v 0.044023 0.144076 0.076250
v 0.076250 0.144076 0.044023
v 0.088046 0.144076 -0.000000
v -0.076250 0.144076 -0.044023
v 0.044023 0.144076 -0.076250
v 0.076250 0.144076 -0.044023
v -0.088046 0.144076 0.000000
v -0.082116 0.117827 0.047410
v 0.000000 0.117827 -0.094820
v 0.047410 0.117827 -0.082116
v -0.047410 0.117827 0.082116
v 0.000000 0.117827 0.094820
v -0.047410 0.117827 -0.082116
v 0.047410 0.117827 0.082116
v 0.082116 0.117827 0.047410
v 0.094820 0.117827 -0.000000
v -0.082116 0.117827 -0.047410
v 0.082116 0.117827 -0.047410
v -0.094820 0.117827 0.000000
v 0.000000 -0.189265 -0.100000
v 0.050000 -0.189265 -0.086603
v 0.086603 -0.189265 -0.050000
v 0.100000 -0.189265 -0.000000
v 0.086603 -0.189265 0.050000
v 0.050000 -0.189265 0.086603
v 0.000000 -0.189265 0.100000
v -0.050000 -0.189265 0.086603
v -0.086603 -0.189265 0.050000
v -0.100000 -0.189265 0.000000
v -0.086603 -0.189265 -0.050000
v -0.050000 -0.189265 -0.086603
v 0.000000 0.032943 -0.100000
v 0.050000 0.032943 -0.086603
v 0.086603 0.032943 -0.050000
v 0.100000 0.032943 -0.000000
v 0.086603 0.032943 0.050000
v 0.050000 0.032943 0.086603
v 0.000000 0.032943 0.100000
v -0.050000 0.032943 0.086603
v -0.086603 0.032943 0.050000
v -0.100000 0.032943 0.000000
v -0.086603 0.032943 -0.050000
v -0.050000 0.032943 -0.086603
vt 0.583333 1.000000
vt 0.666667 1.000000
vt 0.666667 1.000000
vt 0.583333 1.000000
vt 0.083333 1.000000
vt 0.166667 1.000000
vt 0.166667 1.000000
vt 0.083333 1.000000
vt 0.833333 1.000000
vt 0.916667 1.000000
vt 0.916667 1.000000
vt 0.833333 1.000000
vt 0.250000 1.000000
vt 0.333333 1.000000
vt 0.333333 1.000000
vt 0.250000 1.000000
vt 0.500000 1.000000
vt 0.500000 1.000000
vt 0.750000 1.000000
vt 0.750000 1.000000
vt 0.416667 1.000000
vt 0.416667 1.000000
vt 0.000000 1.000000
vt 0.000000 1.000000
vt 1.000000 1.000000
vt 1.000000 1.000000
vt 0.666667 1.000000
vt 0.583333 1.000000
vt 0.166667 1.000000
vt 0.083333 1.000000
vt 0.916667 1.000000
vt 0.833333 1.000000
vt 0.333333 1.000000
vt 0.250000 1.000000
vt 0.500000 1.000000
vt 0.750000 1.000000
vt 0.416667 1.000000
vt 0.000000 1.000000
vt 1.000000 1.000000
vt 0.416667 1.000000
vt 0.333333 1.000000
vt 0.666667 1.000000
vt 0.583333 1.000000
vt 0.166667 1.000000
vt 0.083333 1.000000
vt 0.916667 1.000000
vt 0.833333 1.000000
vt 0.250000 1.000000
vt 0.500000 1.000000
vt 0.750000 1.000000
vt 0.000000 1.000000
vt 1.000000 1.000000
vt 1.000000 1.000000
vt 0.916667 1.000000
vt 0.416667 1.000000
vt 0.333333 1.000000
vt 0.666667 1.000000
vt 0.583333 1.000000
vt 0.166667 1.000000
vt 0.083333 1.000000
vt 0.833333 1.000000
vt 0.250000 1.000000
vt 0.500000 1.000000
vt 0.750000 1.000000
vt 0.000000 1.000000
vt 1.000000 0.904167
vt 1.000000 1.000000
vt 0.916667 1.000000
vt 0.916667 0.904167
vt 0.833333 1.000000
vt 0.833333 0.904167
vt 0.750000 1.000000
vt 0.750000 0.904167
vt 0.666667 1.000000
vt 0.666667 0.904167
vt 0.583333 1.000000
vt 0.583333 0.904167
vt 0.500000 1.000000
vt 0.500000 0.904167
vt 0.416667 1.000000
vt 0.416667 0.904167
vt 0.333333 1.000000
vt 0.333333 0.904167
vt 0.250000 1.000000
vt 0.250000 0.904167
vt 0.166667 1.000000
vt 0.166667 0.904167
vt 0.083333 1.000000
vt 0.083333 0.904167
vt 0.000000 1.000000
vt 0.000000 0.904167
vt 0.333333 1.000000
vt 0.416667 1.000000
vt 0.500000 1.000000
vt 0.000000 1.000000
vt 0.083333 1.000000
vt 0.583333 1.000000
vt 0.666667 1.000000
vt 0.750000 1.000000
vt 0.166667 1.000000
vt 0.916667 1.000000
vt 1.000000 1.000000
vt 0.833333 1.000000
vt 0.250000 1.000000
vt 0.083333 1.000000
vt 0.000000 1.000000
vt 1.000000 1.000000
vt 0.916667 1.000000
vt 0.416667 1.000000
vt 0.333333 1.000000
vt 0.666667 1.000000
vt 0.583333 1.000000
vt 0.166667 1.000000
vt 0.833333 1.000000
vt 0.250000 1.000000
vt 0.500000 1.000000
vt 0.750000 1.000000
vt 0.250000 1.000000
vt 0.333333 1.000000
vt 0.166667 1.000000
vt 0.833333 1.000000
vt 0.916667 1.000000
vt 0.750000 1.000000
vt 1.000000 1.000000
vt 0.083333 1.000000
vt 0.666667 1.000000
vt 0.583333 1.000000
vt 0.500000 1.000000
vt 0.000000 1.000000
vt 0.416667 1.000000
vt 0.000000 0.500000
vt 0.916667 0.500000
vt 0.833333 0.500000
vt 0.750000 0.500000
vt 0.666667 0.500000
vt 0.583333 0.500000
vt 0.500000 0.500000
vt 0.416667 0.500000
vt 0.333333 0.500000
vt 0.250000 0.500000
vt 0.166667 0.500000
vt 0.083333 0.500000
vt 0.083333 0.575598
vt 0.000000 0.575598
vt 0.166667 0.575598
vt 0.250000 0.575598
vt 0.333333 0.575598
vt 0.416667 0.575598
vt 0.500000 0.575598
vt 0.583333 0.575598
vt 0.666667 0.575598
vt 0.750000 0.575598
vt 0.833333 0.575598
vt 0.916667 0.575598
vt 1.000000 0.500000
vt 1.000000 0.575598
vn 0.4868 0.2282 0.8432
vn 0.8432 0.2282 0.4868
vn 0.5523 -0.7703 0.3189
vn 0.3189 -0.7703 0.5523
vn -0.4868 0.2282 -0.8432
vn -0.8432 0.2282 -0.4868
vn -0.5523 -0.7703 -0.3189
vn -0.3189 -0.7703 -0.5523
vn 0.8432 0.2282 -0.4868
vn 0.4868 0.2282 -0.8432
vn 0.3189 -0.7703 -0.5523
vn 0.5523 -0.7703 -0.3189
vn -0.9736 0.2282 0.0000
vn -0.8432 0.2282 0.4868
vn -0.5523 -0.7703 0.3189
vn -0.6377 -0.7703 0.0000
vn 0.0000 0.2282 0.9736
vn 0.0000 -0.7703 0.6377
vn 0.9736 0.2282 0.0000
vn 0.6377 -0.7703 0.0000
vn -0.4868 0.2282 0.8432
vn -0.3189 -0.7703 0.5523
vn 0.0000 0.2282 -0.9736
vn 0.0000 -0.7703 -0.6377
vn 0.6557 -0.6532 0.3786
vn 0.3786 -0.6532 0.6557
vn -0.6557 -0.6532 -0.3786
vn -0.3786 -0.6532 -0.6557
vn 0.3786 -0.6532 -0.6557
vn 0.6557 -0.6532 -0.3786
vn -0.6557 -0.6532 0.3786
vn -0.7571 -0.6532 0.0000
vn 0.0000 -0.6532 0.7571
vn 0.7571 -0.6532 0.0000
vn -0.3786 -0.6532 0.6557
vn 0.0000 -0.6532 -0.7571
vn -0.3786 0.6532 0.6557
vn -0.6557 0.6532 0.3786
vn 0.6557 0.6532 0.3786
vn 0.3786 0.6532 0.6557
vn -0.6557 0.6532 -0.3786
vn -0.3786 0.6532 -0.6557
vn 0.3786 0.6532 -0.6557
vn 0.6557 0.6532 -0.3786
vn -0.7571 0.6532 0.0000
vn 0.0000 0.6532 0.7571
vn 0.7571 0.6532 0.0000
vn 0.0000 0.6532 -0.7571
vn 0.0000 0.7703 0.6377
vn -0.3189 0.7703 0.5523
vn 0.3189 0.7703 -0.5523
vn 0.5523 0.7703 -0.3189
vn -0.5523 0.7703 -0.3189
vn -0.3189 0.7703 -0.5523
vn 0.5523 0.7703 0.3189
vn 0.3189 0.7703 0.5523
vn -0.5523 0.7703 0.3189
vn 0.6377 0.7703 0.0000
vn 0.0000 0.7703 -0.6377
vn -0.6377 0.7703 0.0000
vn 0.0000 0.0000 -1.0000
vn 0.0000 0.1234 -0.9923
vn 0.4962 0.1234 -0.8594
vn 0.5000 0.0000 -0.8660
vn 0.8594 0.1234 -0.4962
vn 0.8660 0.0000 -0.5000
vn 0.9923 0.1234 0.0000
vn 1.0000 0.0000 0.0000
vn 0.8594 0.1234 0.4962
vn 0.8660 0.0000 0.5000
vn 0.4962 0.1234 0.8594
vn 0.5000 0.0000 0.8660
vn 0.0000 0.1234 0.9923
vn 0.0000 0.0000 1.0000
vn -0.4962 0.1234 0.8594
vn -0.5000 0.0000 0.8660
vn -0.8594 0.1234 0.4962
vn -0.8660 0.0000 0.5000
vn -0.9923 0.1234 0.0000
vn -1.0000 0.0000 0.0000
vn -0.8594 0.1234 -0.4962
vn -0.8660 0.0000 -0.5000
vn -0.4962 0.1234 -0.8594
vn -0.5000 0.0000 -0.8660
vn -0.8156 0.3362 0.4709
vn -0.4709 0.3362 0.8156
vn 0.0000 0.3362 0.9418
vn 0.0000 0.3362 -0.9418
vn -0.4709 0.3362 -0.8156
vn 0.4709 0.3362 0.8156
vn 0.8156 0.3362 0.4709
vn 0.9418 0.3362 0.0000
vn -0.8156 0.3362 -0.4709
vn 0.4709 0.3362 -0.8156
vn 0.8156 0.3362 -0.4709
vn -0.9418 0.3362 0.0000
vn -0.9683 0.2499 0.0000
vn -0.8385 0.2499 0.4841
vn -0.8385 0.2499 -0.4841
vn 0.8385 0.2499 -0.4841
vn 0.4841 0.2499 -0.8385
vn 0.9683 0.2499 0.0000
vn 0.0000 0.2499 -0.9683
vn -0.4841 0.2499 -0.8385
vn 0.8385 0.2499 0.4841
vn 0.4841 0.2499 0.8385
vn 0.0000 0.2499 0.9683
vn -0.4841 0.2499 0.8385
usemtl Red
s 1
f 30/1/1 29/2/2 41/3/3 42/4/4
f 36/5/5 35/6/6 47/7/7 48/8/8
f 27/9/9 26/10/10 38/11/11 39/12/12
f 34/13/13 33/14/14 45/15/15 46/16/16
f 31/17/17 30/1/1 42/4/4 43/18/18
f 28/19/19 27/9/9 39/12/12 40/20/20
f 35/6/6 34/13/13 46/16/16 47/7/7
f 32/21/21 31/17/17 43/18/18 44/22/22
f 29/2/2 28/19/19 40/20/20 41/3/3
f 25/23/23 36/5/5 48/8/8 37/24/24
f 26/10/10 25/25/23 37/26/24 38/11/11
f 33/14/14 32/21/21 44/22/22 45/15/15
f 42/4/4 41/3/3 53/27/25 54/28/26
f 48/8/8 47/7/7 59/29/27 60/30/28
f 39/12/12 38/11/11 50/31/29 51/32/30
f 46/16/16 45/15/15 57/33/31 58/34/32
f 43/18/18 42/4/4 54/28/26 55/35/33
f 40/20/20 39/12/12 51/32/30 52/36/34
f 47/7/7 46/16/16 58/34/32 59/29/27
f 44/22/22 43/18/18 55/35/33 56/37/35
f 41/3/3 40/20/20 52/36/34 53/27/25
f 37/24/24 48/8/8 60/30/28 49/38/36
f 38/11/11 37/26/24 49/39/36 50/31/29
f 45/15/15 44/22/22 56/37/35 57/33/31
f 57/33/31 56/37/35 68/40/37 69/41/38
f 54/28/26 53/27/25 65/42/39 66/43/40
f 60/30/28 59/29/27 71/44/41 72/45/42
f 51/32/30 50/31/29 62/46/43 63/47/44
f 58/34/32 57/33/31 69/41/38 70/48/45
f 55/35/33 54/28/26 66/43/40 67/49/46
f 52/36/34 51/32/30 63/47/44 64/50/47
f 59/29/27 58/34/32 70/48/45 71/44/41
f 56/37/35 55/35/33 67/49/46 68/40/37
f 53/27/25 52/36/34 64/50/47 65/42/39
f 49/38/36 60/30/28 72/45/42 61/51/48
f 50/31/29 49/39/36 61/52/48 62/46/43
f 62/46/43 61/52/48 73/53/49 74/54/50
f 69/41/38 68/40/37 80/55/51 81/56/52
f 66/43/40 65/42/39 77/57/53 78/58/54
f 72/45/42 71/44/41 83/59/55 84/60/56
f 63/47/44 62/46/43 74/54/50 75/61/57
f 70/48/45 69/41/38 81/56/52 82/62/58
f 67/49/46 66/43/40 78/58/54 79/63/59
f 64/50/47 63/47/44 75/61/57 76/64/60
f 71/44/41 70/48/45 82/62/58 83/59/55
f 68/40/37 67/49/46 79/63/59 80/55/51
f 65/42/39 64/50/47 76/64/60 77/57/53
f 61/51/48 72/45/42 84/60/56 73/65/49
usemtl Black
f 133/66/61 2/67/62 4/68/63 134/69/64
f 134/69/64 4/68/63 6/70/65 135/71/66
f 135/71/66 6/70/65 8/72/67 136/73/68
f 136/73/68 8/72/67 10/74/69 137/75/70
f 137/75/70 10/74/69 12/76/71 138/77/72
f 138/77/72 12/76/71 14/78/73 139/79/74
f 139/79/74 14/78/73 16/80/75 140/81/76
f 140/81/76 16/80/75 18/82/77 141/83/78
f 141/83/78 18/82/77 20/84/79 142/85/80
f 142/85/80 20/84/79 22/86/81 143/87/82
f 143/87/82 22/86/81 24/88/83 144/89/84
f 144/89/84 24/88/83 2/90/62 133/91/61
f 97/92/85 98/93/86 32/21/21 33/14/14
f 98/93/86 99/94/87 31/17/17 32/21/21
f 100/95/88 101/96/89 36/5/5 25/23/23
f 99/94/87 102/97/90 30/1/1 31/17/17
f 102/97/90 103/98/91 29/2/2 30/1/1
f 103/98/91 104/99/92 28/19/19 29/2/2
f 101/96/89 105/100/93 35/6/6 36/5/5
f 106/101/94 100/102/88 25/25/23 26/10/10
f 104/99/92 107/103/95 27/9/9 28/19/19
f 107/103/95 106/101/94 26/10/10 27/9/9
f 105/100/93 108/104/96 34/13/13 35/6/6
f 108/104/96 97/92/85 33/14/14 34/13/13
f 73/65/49 84/60/56 96/105/40 85/106/46
f 74/54/50 73/53/49 85/107/46 86/108/37
f 81/56/52 80/55/51 92/109/43 93/110/44
f 78/58/54 77/57/53 89/111/41 90/112/42
f 84/60/56 83/59/55 95/113/39 96/105/40
f 75/61/57 74/54/50 86/108/37 87/114/38
f 82/62/58 81/56/52 93/110/44 94/115/47
f 79/63/59 78/58/54 90/112/42 91/116/48
f 76/64/60 75/61/57 87/114/38 88/117/45
f 83/59/55 82/62/58 94/115/47 95/113/39
f 80/55/51 79/63/59 91/116/48 92/109/43
f 77/57/53 76/64/60 88/117/45 89/111/41
f 120/118/97 109/119/98 97/92/85 108/104/96
f 118/120/99 120/118/97 108/104/96 105/100/93
f 119/121/100 111/122/101 106/101/94 107/103/95
f 117/123/102 119/121/100 107/103/95 104/99/92
f 111/122/101 110/124/103 100/102/88 106/101/94
f 114/125/104 118/120/99 105/100/93 101/96/89
f 116/126/105 117/123/102 104/99/92 103/98/91
f 115/127/106 116/126/105 103/98/91 102/97/90
f 113/128/107 115/127/106 102/97/90 99/94/87
f 110/129/103 114/125/104 101/96/89 100/95/88
f 112/130/108 113/128/107 99/94/87 98/93/86
f 109/119/98 112/130/108 98/93/86 97/92/85
f 18/82/77 16/80/75 112/130/108 109/119/98
f 16/80/75 14/78/73 113/128/107 112/130/108
f 2/90/62 24/88/83 114/125/104 110/129/103
f 14/78/73 12/76/71 115/127/106 113/128/107
f 12/76/71 10/74/69 116/126/105 115/127/106
f 10/74/69 8/72/67 117/123/102 116/126/105
f 24/88/83 22/86/81 118/120/99 114/125/104
f 4/68/63 2/67/62 110/124/103 111/122/101
f 8/72/67 6/70/65 119/121/100 117/123/102
f 6/70/65 4/68/63 111/122/101 119/121/100
f 22/86/81 20/84/79 120/118/97 118/120/99
f 20/84/79 18/82/77 109/119/98 120/118/97
f 1/131/36 3/132/29 5/133/30 7/134/34 9/135/25 11/136/26 13/137/33 15/138/35 17/139/31 19/140/32 21/141/27 23/142/28
f 23/142/28 132/143/84 121/144/61 1/131/36
f 21/141/27 131/145/82 132/143/84 23/142/28
f 19/140/32 130/146/80 131/145/82 21/141/27
f 17/139/31 129/147/78 130/146/80 19/140/32
f 15/138/35 128/148/76 129/147/78 17/139/31
f 13/137/33 127/149/74 128/148/76 15/138/35
f 11/136/26 126/150/72 127/149/74 13/137/33
f 9/135/25 125/151/70 126/150/72 11/136/26
f 7/134/34 124/152/68 125/151/70 9/135/25
f 5/133/30 123/153/66 124/152/68 7/134/34
f 3/132/29 122/154/64 123/153/66 5/133/30
f 1/155/36 121/156/61 122/154/64 3/132/29
f 86/108/37 85/106/46 96/105/40 95/113/39 94/115/47 93/110/44 92/109/43 91/116/48 90/112/42 89/111/41 88/117/45 87/114/38
usemtl White
f 132/143/84 144/89/84 133/91/61 121/144/61
f 131/145/82 143/87/82 144/89/84 132/143/84
f 130/146/80 142/85/80 143/87/82 131/145/82
f 129/147/78 141/83/78 142/85/80 130/146/80
f 128/148/76 140/81/76 141/83/78 129/147/78
f 127/149/74 139/79/74 140/81/76 128/148/76
f 126/150/72 138/77/72 139/79/74 127/149/74
f 125/151/70 137/75/70 138/77/72 126/150/72
f 124/152/68 136/73/68 137/75/70 125/151/70
f 123/153/66 135/71/66 136/73/68 124/152/68
f 122/154/64 134/69/64 135/71/66 123/153/66
f 121/156/61 133/66/61 134/69/64 122/154/64
